<svg xmlns="http://www.w3.org/2000/svg" viewBox="0 0 640 140" width="640" height="140" role="img" aria-label="Włóczykij">
  
  <g fill="#2D5A27">
    <g transform="translate(0, 10) scale(0.4, 0.4)">
    <path d="M 4 78 C 28 64, 96 58, 154 62 C 168 64, 176 72, 170 78 C 168 82, 156 84, 138 86 C 90 92, 38 92, 14 88 C 4 86, -2 82, 4 78 Z"></path>
    <path d="M 76 68 C 70 30, 88 12, 104 12 C 124 12, 134 32, 128 68 Z"></path>
    <path d="M 86 86 L 86 96 C 78 98, 74 102, 78 108 C 80 112, 86 116, 94 118 L 116 118 C 122 118, 126 114, 126 108 L 126 86 Z"></path>
    <path d="M 88 118 C 80 132, 76 158, 78 184 L 82 208 L 88 220 L 122 220 L 130 210 L 132 134 C 132 124, 126 118, 120 118 L 116 118 Z"></path>
    <path d="M 130 124 C 148 126, 162 138, 162 156 L 162 196 C 162 206, 156 210, 148 208 L 132 204 L 132 134 C 132 124, 130 124, 130 124 Z"></path>
    <path d="M 88 220 L 76 264 L 60 290 L 48 296 L 52 300 L 92 300 L 98 268 L 110 220 Z"></path>
    <path d="M 112 220 L 118 244 L 130 268 L 154 274 L 166 270 L 160 264 L 146 260 L 134 252 L 126 232 L 122 220 Z"></path>
    </g>
    <text x="102" y="102.6" class="word" font-size="96" fill="#2D5A27" letter-spacing="-0.5">Włóczykij</text>
  </g>
</svg>